# xmcd
#
# Track frame offsets:
#	9150
#	27993
#	48268
#	70667
#	87269
#	99454
#	121582
#	133730
#	152590
#	168930
#	187253
#
# Disc length: 2779 seconds
#
# Revision: 0
# Processed by: cddbd v1.4PL0 Copyright (c) Steve Scherf et al.
# Submitted via: EasyCDDAExtractor 4.6.0.1
#
DISCID=8b0a610b
DTITLE=Sodastream - The Hill For Company
DYEAR=2001
DGENRE=country
TTITLE0=Heaven on the ground
TTITLE1=Lushington Hall
TTITLE2=Trouble on the railway
TTITLE3=Fresh one
TTITLE4=Mood in the bunker
TTITLE5=Welcome throw
TTITLE6=A drum
TTITLE7=Real prince
TTITLE8=Devil on my shoulder
TTITLE9=Another trail
TTITLE10=Send my love to those who deserve it
EXTD=
EXTT0=
EXTT1=
EXTT2=
EXTT3=
EXTT4=
EXTT5=
EXTT6=
EXTT7=
EXTT8=
EXTT9=
EXTT10=
PLAYORDER=
